<svg aria-hidden="true" style="position: absolute; width: 0; height: 0; overflow: hidden;" version="1.1" xmlns="http://www.w3.org/2000/svg" xmlns:xlink="http://www.w3.org/1999/xlink">
<defs>
<symbol id="icon-map" viewBox="0 0 19 32">
<path fill="#1c3988" style="fill: var(--color1, #1c3988)" opacity="0.35" d="M9.455 0c-5.213 0-9.455 4.989-9.455 11.123 0 7.709 9.463 20.877 9.463 20.877s9.446-13.548 9.446-20.877c0-6.132-4.241-11.123-9.455-11.123zM12.307 14.38c-0.785 0.925-1.818 1.388-2.852 1.388-1.033 0-2.065-0.463-2.852-1.388-1.572-1.85-1.572-4.861 0-6.711 0.762-0.897 1.775-1.391 2.852-1.391 1.076 0 2.090 0.495 2.852 1.391 1.574 1.85 1.574 4.861 0 6.711z"></path>
</symbol>
<symbol id="icon-TG" viewBox="0 0 32 32">
<path fill="#1c3988" style="fill: var(--color1, #1c3988)" opacity="0.15" d="M30.778 0.051c-0.015 0.005-0.031-0.002-0.046 0.004l-30 11.25c-0.325 0.125-0.559 0.416-0.601 0.766l-0 0.004c-0.004 0.032-0.006 0.070-0.006 0.108 0 0.324 0.164 0.609 0.414 0.777l0.003 0.002 6.577 4.384 2.406 10.054c0.006 0.026 0.023 0.047 0.031 0.073 0.216 0.66 1.047 0.869 1.544 0.372l4.707-4.707 7.236 4.824c0.524 0.352 1.247 0.089 1.422-0.523l7.5-26.25c0.201-0.706-0.462-1.371-1.185-1.139zM11.805 19.121c-0.155 0.157-0.202 0.285-0.256 0.483-0.001 0.004-0.002 0.007-0.003 0.011l-1.046 3.804-1.491-6.228 14.52-9.956-11.724 11.887zM6.288 25.708c-0.17-0.17-0.404-0.275-0.663-0.275s-0.493 0.105-0.663 0.275l-4.688 4.688c-0.17 0.17-0.275 0.404-0.275 0.663s0.105 0.493 0.275 0.663v0c0.17 0.17 0.404 0.275 0.663 0.275s0.493-0.105 0.663-0.275v0l4.687-4.687c0.17-0.17 0.275-0.404 0.275-0.663s-0.105-0.493-0.275-0.663v0z"></path>
<path fill="#1c3988" style="fill: var(--color1, #1c3988)" opacity="0.15" d="M6.288 20.083c-0.17-0.17-0.404-0.275-0.663-0.275s-0.493 0.105-0.663 0.275l-4.688 4.688c-0.17 0.17-0.275 0.404-0.275 0.663s0.105 0.493 0.275 0.663v0c0.17 0.17 0.404 0.275 0.663 0.275s0.493-0.105 0.663-0.275v0l4.687-4.687c0.17-0.17 0.275-0.404 0.275-0.663s-0.105-0.493-0.275-0.663v0z"></path>
</symbol>
<symbol id="icon-logo" viewBox="0 0 52 32">
<path d="M34.566 0l-8.629 6.307-8.636-6.307-17.301 12.635v19.365h10.041v-4.25h-5.791v-12.951l13.051-9.531 5.024 3.669-5.067 3.698v19.365h17.344v-19.365l-5.067-3.698 5.024-3.669 13.051 9.531v12.951h-6.258v4.25h10.521v-19.365l-17.307-12.635zM30.352 14.8v12.95h-8.837v-12.951l4.414-3.224 4.422 3.224z"></path>
</symbol>
<symbol id="icon-close-black" viewBox="0 0 32 32">
<path d="M32 3.223l-3.223-3.223-12.777 12.777-12.777-12.777-3.223 3.223 12.777 12.777-12.777 12.777 3.223 3.223 12.777-12.777 12.777 12.777 3.223-3.223-12.777-12.777 12.777-12.777z"></path>
</symbol>
<symbol id="icon-name" viewBox="0 0 32 32">
<path d="M16 16c4.42 0 8-3.58 8-8s-3.58-8-8-8c-4.42 0-8 3.58-8 8s3.58 8 8 8zM16 20c-5.34 0-16 2.68-16 8v2c0 1.1 0.9 2 2 2h28c1.1 0 2-0.9 2-2v-2c0-5.32-10.66-8-16-8z"></path>
</symbol>
<symbol id="icon-mail" viewBox="0 0 43 32">
<path d="M37.333 0h-32c-2.2 0-3.98 1.8-3.98 4l-0.020 24c0 2.2 1.8 4 4 4h32c2.2 0 4-1.8 4-4v-24c0-2.2-1.8-4-4-4zM36.533 8.5l-14.14 8.84c-0.64 0.4-1.48 0.4-2.12 0l-14.14-8.84c-0.5-0.32-0.8-0.86-0.8-1.44 0-1.34 1.46-2.14 2.6-1.44l13.4 8.38 13.4-8.38c1.14-0.7 2.6 0.1 2.6 1.44 0 0.58-0.3 1.12-0.8 1.44z"></path>
</symbol>
<symbol id="icon-phone" viewBox="0 0 32 32">
<path d="M28.865 21.822l-4.525-0.517c-1.087-0.125-2.155 0.249-2.921 1.015l-3.278 3.278c-5.041-2.565-9.174-6.68-11.739-11.739l3.296-3.296c0.766-0.766 1.14-1.835 1.015-2.921l-0.517-4.489c-0.214-1.799-1.728-3.153-3.545-3.153h-3.082c-2.013 0-3.687 1.675-3.563 3.687 0.944 15.213 13.111 27.362 28.306 28.306 2.013 0.125 3.687-1.55 3.687-3.563v-3.082c0.018-1.799-1.336-3.313-3.135-3.527z"></path>
</symbol>
</defs>
</svg>
